<svg width="20" height="20" viewBox="0 0 20 20" fill="none" xmlns="http://www.w3.org/2000/svg">
<rect x="20" width="20" height="20" rx="10" transform="rotate(90 20 0)" fill="#374151"/>
<path d="M6.49977 10.5004L12.0848 10.5004L9.64477 12.9404C9.44977 13.1354 9.44977 13.4554 9.64477 13.6504C9.83977 13.8454 10.1548 13.8454 10.3498 13.6504L13.6448 10.3554C13.8398 10.1604 13.8398 9.84535 13.6448 9.65035L10.3548 6.35035C10.1598 6.15535 9.84477 6.15535 9.64977 6.35035C9.45477 6.54535 9.45477 6.86035 9.64977 7.05535L12.0848 9.50035L6.49977 9.50035C6.22477 9.50035 5.99977 9.72535 5.99977 10.0004C5.99977 10.2754 6.22477 10.5004 6.49977 10.5004Z" fill="#069952"/>
</svg>
