<svg width="41" height="40" viewBox="0 0 41 40" fill="none" xmlns="http://www.w3.org/2000/svg">
<rect x="0.5" width="40" height="40" rx="20" fill="#FDF5F6" fill-opacity="0.12"/>
<path d="M16.7935 28C16.5389 28 16.2947 27.8989 16.1147 27.7188C15.9346 27.5388 15.8335 27.2946 15.8335 27.04V15.7707C15.8335 15.2407 16.2635 14.8107 16.7935 14.8107H17.9308C17.9668 14.8107 18.0015 14.8193 18.0315 14.8347L18.0302 14.834V12.112C18.0302 12.05 18.0802 12 18.1422 12H22.1555C22.2175 12 22.2675 12.05 22.2675 12.112V14.818C22.2849 14.8137 22.3028 14.8114 22.3208 14.8113H23.3308C23.8608 14.8113 24.2908 15.2413 24.2908 15.7713V18.4587C24.3209 18.444 24.354 18.4365 24.3875 18.4367H24.8922C25.0162 18.4367 25.1168 18.5373 25.1168 18.6613V24.5093C25.1168 24.5689 25.0932 24.6261 25.051 24.6682C25.0089 24.7103 24.9517 24.734 24.8922 24.734H24.3875C24.3535 24.7341 24.32 24.7264 24.2895 24.7113L24.2908 24.712V27.04C24.2908 27.2946 24.1897 27.5388 24.0097 27.7188C23.8296 27.8989 23.5854 28 23.3308 28H16.7935ZM21.6762 25.846V26.602C21.6763 26.6318 21.6883 26.6604 21.7094 26.6815C21.7304 26.7026 21.759 26.7145 21.7888 26.7147H22.6782C22.708 26.7145 22.7365 26.7026 22.7576 26.6815C22.7787 26.6604 22.7907 26.6318 22.7908 26.602V25.846C22.7907 25.8162 22.7787 25.7877 22.7576 25.7668C22.7365 25.7458 22.7079 25.734 22.6782 25.734H21.7875C21.7578 25.7342 21.7293 25.746 21.7083 25.767C21.6872 25.7879 21.6752 25.8163 21.6748 25.846H21.6762ZM19.5722 25.846V26.602C19.5723 26.6318 19.5843 26.6604 19.6054 26.6815C19.6264 26.7026 19.655 26.7145 19.6848 26.7147H20.5735C20.6033 26.7145 20.6319 26.7026 20.653 26.6815C20.6741 26.6604 20.686 26.6318 20.6862 26.602V25.846C20.686 25.8162 20.674 25.7877 20.6529 25.7668C20.6318 25.7458 20.6033 25.734 20.5735 25.734H19.6842C19.6545 25.7342 19.626 25.746 19.6049 25.767C19.5838 25.7879 19.5718 25.8163 19.5715 25.846H19.5722ZM17.4682 25.846V26.6027C17.4682 26.6647 17.5182 26.7147 17.5802 26.7147H18.4695C18.4993 26.7145 18.5279 26.7026 18.549 26.6815C18.5701 26.6604 18.582 26.6318 18.5822 26.602V25.846C18.582 25.8162 18.57 25.7877 18.5489 25.7668C18.5278 25.7458 18.4993 25.734 18.4695 25.734H17.5802C17.5505 25.734 17.522 25.7458 17.501 25.7668C17.48 25.7878 17.4682 25.8163 17.4682 25.846ZM21.6755 24.132V24.888C21.6757 24.9178 21.6876 24.9464 21.7087 24.9675C21.7298 24.9886 21.7583 25.0005 21.7882 25.0007H22.6775C22.7073 25.0005 22.7359 24.9886 22.757 24.9675C22.7781 24.9464 22.79 24.9178 22.7902 24.888V24.1313C22.7902 24.1016 22.7784 24.0731 22.7574 24.0521C22.7364 24.0311 22.7079 24.0193 22.6782 24.0193H21.7868C21.7571 24.0193 21.7286 24.0311 21.7076 24.0521C21.6866 24.0731 21.6748 24.1016 21.6748 24.1313V24.132H21.6755ZM19.5715 24.132V24.888C19.5717 24.9178 19.5836 24.9464 19.6047 24.9675C19.6258 24.9886 19.6543 25.0005 19.6842 25.0007H20.5735C20.6033 25.0005 20.6319 24.9886 20.653 24.9675C20.6741 24.9464 20.686 24.9178 20.6862 24.888V24.1313C20.6862 24.1016 20.6744 24.0731 20.6534 24.0521C20.6324 24.0311 20.6039 24.0193 20.5742 24.0193H19.6835C19.6538 24.0193 19.6253 24.0311 19.6043 24.0521C19.5833 24.0731 19.5715 24.1016 19.5715 24.1313V24.132ZM17.4675 24.132V24.8887C17.4675 24.9507 17.5175 25.0007 17.5795 25.0007H18.4688C18.4987 25.0005 18.5272 24.9886 18.5483 24.9675C18.5694 24.9464 18.5813 24.9178 18.5815 24.888V24.1313C18.5815 24.1016 18.5697 24.0731 18.5487 24.0521C18.5277 24.0311 18.4992 24.0193 18.4695 24.0193H17.5795C17.5498 24.0193 17.5213 24.0311 17.5003 24.0521C17.4793 24.0731 17.4675 24.1016 17.4675 24.1313V24.132ZM21.6748 22.4173V23.174C21.6748 23.236 21.7248 23.286 21.7868 23.286H22.6775C22.7072 23.286 22.7357 23.2742 22.7567 23.2532C22.7777 23.2322 22.7895 23.2037 22.7895 23.174V22.4173C22.7893 22.3876 22.7774 22.3591 22.7563 22.3381C22.7352 22.3171 22.7066 22.3053 22.6768 22.3053H21.7875C21.7578 22.3055 21.7293 22.3173 21.7083 22.3383C21.6872 22.3592 21.6752 22.3876 21.6748 22.4173ZM19.5708 22.4173V23.174C19.5708 23.236 19.6208 23.286 19.6828 23.286H20.5735C20.6032 23.286 20.6317 23.2742 20.6527 23.2532C20.6737 23.2322 20.6855 23.2037 20.6855 23.174V22.4173C20.6853 22.3876 20.6734 22.3591 20.6523 22.3381C20.6312 22.3171 20.6026 22.3053 20.5728 22.3053H19.6835C19.6538 22.3055 19.6253 22.3173 19.6043 22.3383C19.5832 22.3592 19.5712 22.3876 19.5708 22.4173ZM17.4668 22.4173V23.174C17.4668 23.236 17.5168 23.286 17.5788 23.286H18.4695C18.4992 23.286 18.5277 23.2742 18.5487 23.2532C18.5697 23.2322 18.5815 23.2037 18.5815 23.174V22.4173C18.5813 22.3876 18.5694 22.3591 18.5483 22.3381C18.5272 22.3171 18.4986 22.3053 18.4688 22.3053H17.5795C17.5498 22.3053 17.5213 22.3171 17.5003 22.3381C17.4793 22.3591 17.4675 22.3876 17.4675 22.4173H17.4668ZM17.3268 17.942V21.2167C17.3268 21.2787 17.3768 21.3287 17.4388 21.3287H22.6135C22.6432 21.3287 22.6717 21.3169 22.6927 21.2959C22.7137 21.2749 22.7255 21.2464 22.7255 21.2167V17.942C22.7253 17.9122 22.7134 17.8836 22.6923 17.8625C22.6712 17.8414 22.6427 17.8295 22.6128 17.8293H17.4395C17.4097 17.8295 17.3811 17.8414 17.36 17.8625C17.3389 17.8836 17.327 17.9122 17.3268 17.942ZM16.9908 16.154V16.9473C16.9908 17.1333 17.1415 17.284 17.3275 17.284H22.9268C23.0161 17.284 23.1018 17.2485 23.1649 17.1854C23.228 17.1223 23.2635 17.0366 23.2635 16.9473V16.154C23.2635 16.0647 23.228 15.9791 23.1649 15.9159C23.1018 15.8528 23.0161 15.8173 22.9268 15.8173H22.2668V16.4907H22.5922V16.6093H17.6642V16.4907H17.8782C17.9322 16.4907 17.9855 16.4776 18.0335 16.4527L18.0315 16.4533V15.8547C17.9839 15.83 17.9311 15.8172 17.8775 15.8173H17.3262C17.237 15.8175 17.1515 15.8531 17.0885 15.9162C17.0255 15.9793 16.9902 16.0648 16.9902 16.154H16.9908Z" fill="#FF99C2"/>
</svg>
