<svg width="60" height="60" viewBox="0 0 60 60" fill="none" xmlns="http://www.w3.org/2000/svg">
<rect width="60" height="60" rx="30" fill="#FAFAFA"/>
<rect x="0.623807" y="0.623807" width="58.7524" height="58.7524" rx="29.3762" stroke="#755BE2" stroke-opacity="0.07" stroke-width="1.24761"/>
<path fill-rule="evenodd" clip-rule="evenodd" d="M27.0716 16.6641H33.7383C40.0233 16.6641 43.1666 16.6641 45.1183 18.6174C47.0699 20.5707 47.0716 23.7124 47.0716 29.9974C47.0716 36.2824 47.0716 39.4257 45.1183 41.3774C43.1649 43.3291 40.0233 43.3307 33.7383 43.3307H27.0716C20.7866 43.3307 17.6433 43.3307 15.6916 41.3774C13.7399 39.4241 13.7383 36.2824 13.7383 29.9974C13.7383 23.7124 13.7383 20.5691 15.6916 18.6174C17.6449 16.6657 20.7866 16.6641 27.0716 16.6641ZM32.4883 24.9974C32.4883 24.6659 32.62 24.3479 32.8544 24.1135C33.0888 23.8791 33.4068 23.7474 33.7383 23.7474H42.0716C42.4031 23.7474 42.7211 23.8791 42.9555 24.1135C43.1899 24.3479 43.3216 24.6659 43.3216 24.9974C43.3216 25.3289 43.1899 25.6469 42.9555 25.8813C42.7211 26.1157 42.4031 26.2474 42.0716 26.2474H33.7383C33.4068 26.2474 33.0888 26.1157 32.8544 25.8813C32.62 25.6469 32.4883 25.3289 32.4883 24.9974ZM34.1549 29.9974C34.1549 29.6659 34.2866 29.3479 34.5211 29.1135C34.7555 28.8791 35.0734 28.7474 35.4049 28.7474H42.0716C42.4031 28.7474 42.7211 28.8791 42.9555 29.1135C43.1899 29.3479 43.3216 29.6659 43.3216 29.9974C43.3216 30.3289 43.1899 30.6469 42.9555 30.8813C42.7211 31.1157 42.4031 31.2474 42.0716 31.2474H35.4049C35.0734 31.2474 34.7555 31.1157 34.5211 30.8813C34.2866 30.6469 34.1549 30.3289 34.1549 29.9974ZM35.8216 34.9974C35.8216 34.6659 35.9533 34.3479 36.1877 34.1135C36.4222 33.8791 36.7401 33.7474 37.0716 33.7474H42.0716C42.4031 33.7474 42.7211 33.8791 42.9555 34.1135C43.1899 34.3479 43.3216 34.6659 43.3216 34.9974C43.3216 35.3289 43.1899 35.6469 42.9555 35.8813C42.7211 36.1157 42.4031 36.2474 42.0716 36.2474H37.0716C36.7401 36.2474 36.4222 36.1157 36.1877 35.8813C35.9533 35.6469 35.8216 35.3289 35.8216 34.9974ZM28.7383 24.9974C28.7383 25.8815 28.3871 26.7293 27.762 27.3544C27.1368 27.9795 26.289 28.3307 25.4049 28.3307C24.5209 28.3307 23.673 27.9795 23.0479 27.3544C22.4228 26.7293 22.0716 25.8815 22.0716 24.9974C22.0716 24.1133 22.4228 23.2655 23.0479 22.6404C23.673 22.0153 24.5209 21.6641 25.4049 21.6641C26.289 21.6641 27.1368 22.0153 27.762 22.6404C28.3871 23.2655 28.7383 24.1133 28.7383 24.9974ZM25.4049 38.3307C32.0716 38.3307 32.0716 36.8391 32.0716 34.9974C32.0716 33.1557 29.0883 31.6641 25.4049 31.6641C21.7216 31.6641 18.7383 33.1557 18.7383 34.9974C18.7383 36.8391 18.7383 38.3307 25.4049 38.3307Z" fill="#0784C3"/>
</svg>
