<svg width="60" height="60" viewBox="0 0 60 60" fill="none" xmlns="http://www.w3.org/2000/svg">
<rect width="60" height="60" rx="30" fill="#FAFAFA"/>
<rect x="0.623807" y="0.623807" width="58.7524" height="58.7524" rx="29.3762" stroke="#755BE2" stroke-opacity="0.07" stroke-width="1.24761"/>
<path fill-rule="evenodd" clip-rule="evenodd" d="M21.95 13.3359H37.8C39.7317 13.3359 40.6967 13.3359 41.4767 13.6076C42.2118 13.8688 42.8769 14.2957 43.4206 14.8552C43.9642 15.4148 44.3717 16.0919 44.6117 16.8343C44.875 17.6376 44.875 18.6309 44.875 20.6193V43.9593C44.875 45.3893 43.2333 46.1493 42.195 45.1993C41.9037 44.9301 41.5216 44.7806 41.125 44.7806C40.7284 44.7806 40.3463 44.9301 40.055 45.1993L39.25 45.9359C38.7397 46.4079 38.0701 46.67 37.375 46.67C36.6799 46.67 36.0103 46.4079 35.5 45.9359C34.9897 45.464 34.3201 45.2019 33.625 45.2019C32.9299 45.2019 32.2603 45.464 31.75 45.9359C31.2397 46.4079 30.5701 46.67 29.875 46.67C29.1799 46.67 28.5103 46.4079 28 45.9359C27.4897 45.464 26.8201 45.2019 26.125 45.2019C25.4299 45.2019 24.7603 45.464 24.25 45.9359C23.7397 46.4079 23.0701 46.67 22.375 46.67C21.6799 46.67 21.0103 46.4079 20.5 45.9359L19.695 45.1993C19.4037 44.9301 19.0216 44.7806 18.625 44.7806C18.2284 44.7806 17.8463 44.9301 17.555 45.1993C16.5167 46.1493 14.875 45.3893 14.875 43.9593V20.6193C14.875 18.6309 14.875 17.6359 15.1383 16.8359C15.6383 15.3143 16.7967 14.1209 18.2733 13.6076C19.0533 13.3359 20.0183 13.3359 21.95 13.3359ZM21.5417 21.2526C21.2101 21.2526 20.8922 21.3843 20.6578 21.6187C20.4234 21.8531 20.2917 22.1711 20.2917 22.5026C20.2917 22.8341 20.4234 23.1521 20.6578 23.3865C20.8922 23.6209 21.2101 23.7526 21.5417 23.7526H22.375C22.7065 23.7526 23.0245 23.6209 23.2589 23.3865C23.4933 23.1521 23.625 22.8341 23.625 22.5026C23.625 22.1711 23.4933 21.8531 23.2589 21.6187C23.0245 21.3843 22.7065 21.2526 22.375 21.2526H21.5417ZM27.375 21.2526C27.0435 21.2526 26.7255 21.3843 26.4911 21.6187C26.2567 21.8531 26.125 22.1711 26.125 22.5026C26.125 22.8341 26.2567 23.1521 26.4911 23.3865C26.7255 23.6209 27.0435 23.7526 27.375 23.7526H38.2083C38.5399 23.7526 38.8578 23.6209 39.0922 23.3865C39.3266 23.1521 39.4583 22.8341 39.4583 22.5026C39.4583 22.1711 39.3266 21.8531 39.0922 21.6187C38.8578 21.3843 38.5399 21.2526 38.2083 21.2526H27.375ZM21.5417 27.0859C21.2101 27.0859 20.8922 27.2176 20.6578 27.4521C20.4234 27.6865 20.2917 28.0044 20.2917 28.3359C20.2917 28.6675 20.4234 28.9854 20.6578 29.2198C20.8922 29.4542 21.2101 29.5859 21.5417 29.5859H22.375C22.7065 29.5859 23.0245 29.4542 23.2589 29.2198C23.4933 28.9854 23.625 28.6675 23.625 28.3359C23.625 28.0044 23.4933 27.6865 23.2589 27.4521C23.0245 27.2176 22.7065 27.0859 22.375 27.0859H21.5417ZM27.375 27.0859C27.0435 27.0859 26.7255 27.2176 26.4911 27.4521C26.2567 27.6865 26.125 28.0044 26.125 28.3359C26.125 28.6675 26.2567 28.9854 26.4911 29.2198C26.7255 29.4542 27.0435 29.5859 27.375 29.5859H38.2083C38.5399 29.5859 38.8578 29.4542 39.0922 29.2198C39.3266 28.9854 39.4583 28.6675 39.4583 28.3359C39.4583 28.0044 39.3266 27.6865 39.0922 27.4521C38.8578 27.2176 38.5399 27.0859 38.2083 27.0859H27.375ZM21.5417 32.9193C21.2101 32.9193 20.8922 33.051 20.6578 33.2854C20.4234 33.5198 20.2917 33.8377 20.2917 34.1693C20.2917 34.5008 20.4234 34.8187 20.6578 35.0532C20.8922 35.2876 21.2101 35.4193 21.5417 35.4193H22.375C22.7065 35.4193 23.0245 35.2876 23.2589 35.0532C23.4933 34.8187 23.625 34.5008 23.625 34.1693C23.625 33.8377 23.4933 33.5198 23.2589 33.2854C23.0245 33.051 22.7065 32.9193 22.375 32.9193H21.5417ZM27.375 32.9193C27.0435 32.9193 26.7255 33.051 26.4911 33.2854C26.2567 33.5198 26.125 33.8377 26.125 34.1693C26.125 34.5008 26.2567 34.8187 26.4911 35.0532C26.7255 35.2876 27.0435 35.4193 27.375 35.4193H38.2083C38.5399 35.4193 38.8578 35.2876 39.0922 35.0532C39.3266 34.8187 39.4583 34.5008 39.4583 34.1693C39.4583 33.8377 39.3266 33.5198 39.0922 33.2854C38.8578 33.051 38.5399 32.9193 38.2083 32.9193H27.375Z" fill="#177C7A"/>
</svg>
