<svg width="60" height="60" viewBox="0 0 60 60" fill="none" xmlns="http://www.w3.org/2000/svg">
<rect width="60" height="60" rx="30" fill="#FAFAFA"/>
<rect x="0.623807" y="0.623807" width="58.7524" height="58.7524" rx="29.3762" stroke="#755BE2" stroke-opacity="0.07" stroke-width="1.24761"/>
<mask id="mask0_218_649" style="mask-type:luminance" maskUnits="userSpaceOnUse" x="13" y="16" width="34" height="28">
<path d="M33.2074 16.6641H26.5408C20.2558 16.6641 17.1124 16.6641 15.1608 18.6174C13.7541 20.0224 13.3608 22.0457 13.2508 25.4141H46.4974C46.3874 22.0457 45.9941 20.0224 44.5874 18.6174C42.6358 16.6641 39.4924 16.6641 33.2074 16.6641ZM26.5408 43.3307H33.2074C39.4924 43.3307 42.6358 43.3307 44.5874 41.3774C46.5391 39.4241 46.5408 36.2824 46.5408 29.9974C46.5408 29.2618 46.5397 28.5674 46.5374 27.9141H13.2108C13.2074 28.5674 13.2063 29.2618 13.2074 29.9974C13.2074 36.2824 13.2074 39.4257 15.1608 41.3774C17.1141 43.3291 20.2558 43.3307 26.5408 43.3307Z" fill="white"/>
<path fill-rule="evenodd" clip-rule="evenodd" d="M18.625 36.6641C18.625 36.3325 18.7567 36.0146 18.9911 35.7802C19.2255 35.5458 19.5435 35.4141 19.875 35.4141H26.5417C26.8732 35.4141 27.1911 35.5458 27.4255 35.7802C27.66 36.0146 27.7917 36.3325 27.7917 36.6641C27.7917 36.9956 27.66 37.3135 27.4255 37.5479C27.1911 37.7824 26.8732 37.9141 26.5417 37.9141H19.875C19.5435 37.9141 19.2255 37.7824 18.9911 37.5479C18.7567 37.3135 18.625 36.9956 18.625 36.6641ZM29.4583 36.6641C29.4583 36.3325 29.59 36.0146 29.8245 35.7802C30.0589 35.5458 30.3768 35.4141 30.7083 35.4141H33.2083C33.5399 35.4141 33.8578 35.5458 34.0922 35.7802C34.3266 36.0146 34.4583 36.3325 34.4583 36.6641C34.4583 36.9956 34.3266 37.3135 34.0922 37.5479C33.8578 37.7824 33.5399 37.9141 33.2083 37.9141H30.7083C30.3768 37.9141 30.0589 37.7824 29.8245 37.5479C29.59 37.3135 29.4583 36.9956 29.4583 36.6641Z" fill="black"/>
</mask>
<g mask="url(#mask0_218_649)">
<path d="M9.875 10H49.875V50H9.875V10Z" fill="#263238"/>
</g>
</svg>
