<svg width="60" height="60" viewBox="0 0 60 60" fill="none" xmlns="http://www.w3.org/2000/svg">
<rect width="60" height="60" rx="30" fill="#FAFAFA"/>
<rect x="0.623807" y="0.623807" width="58.7524" height="58.7524" rx="29.3762" stroke="#755BE2" stroke-opacity="0.07" stroke-width="1.24761"/>
<path opacity="0.5" d="M21.95 13.333H37.8C39.7317 13.333 40.6967 13.333 41.4767 13.6047C42.2118 13.8659 42.8769 14.2928 43.4206 14.8523C43.9642 15.4118 44.3717 16.089 44.6117 16.8313C44.875 17.6347 44.875 18.628 44.875 20.6163V43.9563C44.875 45.3863 43.2333 46.1463 42.195 45.1963C41.9037 44.9272 41.5216 44.7777 41.125 44.7777C40.7284 44.7777 40.3463 44.9272 40.055 45.1963L39.25 45.933C38.7397 46.4049 38.0701 46.6671 37.375 46.6671C36.6799 46.6671 36.0103 46.4049 35.5 45.933C34.9897 45.4611 34.3201 45.1989 33.625 45.1989C32.9299 45.1989 32.2603 45.4611 31.75 45.933C31.2397 46.4049 30.5701 46.6671 29.875 46.6671C29.1799 46.6671 28.5103 46.4049 28 45.933C27.4897 45.4611 26.8201 45.1989 26.125 45.1989C25.4299 45.1989 24.7603 45.4611 24.25 45.933C23.7397 46.4049 23.0701 46.6671 22.375 46.6671C21.6799 46.6671 21.0103 46.4049 20.5 45.933L19.695 45.1963C19.4037 44.9272 19.0216 44.7777 18.625 44.7777C18.2284 44.7777 17.8463 44.9272 17.555 45.1963C16.5167 46.1463 14.875 45.3863 14.875 43.9563V20.6163C14.875 18.628 14.875 17.633 15.1383 16.833C15.6383 15.3113 16.7967 14.118 18.2733 13.6047C19.0533 13.333 20.0183 13.333 21.95 13.333Z" fill="white"/>
<path fill-rule="evenodd" clip-rule="evenodd" d="M21.95 13.3359H37.8C39.7317 13.3359 40.6967 13.3359 41.4767 13.6076C42.2118 13.8688 42.8769 14.2957 43.4206 14.8552C43.9642 15.4148 44.3717 16.0919 44.6117 16.8343C44.875 17.6376 44.875 18.6309 44.875 20.6193V43.9593C44.875 45.3893 43.2333 46.1493 42.195 45.1993C41.9037 44.9301 41.5216 44.7806 41.125 44.7806C40.7284 44.7806 40.3463 44.9301 40.055 45.1993L39.25 45.9359C38.7397 46.4079 38.0701 46.67 37.375 46.67C36.6799 46.67 36.0103 46.4079 35.5 45.9359C34.9897 45.464 34.3201 45.2019 33.625 45.2019C32.9299 45.2019 32.2603 45.464 31.75 45.9359C31.2397 46.4079 30.5701 46.67 29.875 46.67C29.1799 46.67 28.5103 46.4079 28 45.9359C27.4897 45.464 26.8201 45.2019 26.125 45.2019C25.4299 45.2019 24.7603 45.464 24.25 45.9359C23.7397 46.4079 23.0701 46.67 22.375 46.67C21.6799 46.67 21.0103 46.4079 20.5 45.9359L19.695 45.1993C19.4037 44.9301 19.0216 44.7806 18.625 44.7806C18.2284 44.7806 17.8463 44.9301 17.555 45.1993C16.5167 46.1493 14.875 45.3893 14.875 43.9593V20.6193C14.875 18.6309 14.875 17.6359 15.1383 16.8359C15.6383 15.3143 16.7967 14.1209 18.2733 13.6076C19.0533 13.3359 20.0183 13.3359 21.95 13.3359ZM34.975 24.1693C35.0844 24.0467 35.1687 23.9038 35.2229 23.7487C35.2771 23.5935 35.3002 23.4293 35.2909 23.2652C35.2816 23.1012 35.2401 22.9406 35.1687 22.7926C35.0974 22.6445 34.9976 22.512 34.875 22.4026C34.7524 22.2932 34.6095 22.2089 34.4544 22.1547C34.2993 22.1005 34.135 22.0774 33.971 22.0867C33.8069 22.096 33.6463 22.1375 33.4983 22.2089C33.3503 22.2802 33.2178 22.38 33.1083 22.5026L28.09 28.1259L26.64 26.5026C26.4184 26.2577 26.1089 26.1105 25.7791 26.0931C25.4493 26.0757 25.126 26.1895 24.8798 26.4097C24.6337 26.6298 24.4846 26.9385 24.4653 27.2682C24.446 27.5979 24.5579 27.9218 24.7767 28.1693L27.1567 30.8359C27.2739 30.9673 27.4176 31.0724 27.5783 31.1443C27.739 31.2163 27.9131 31.2535 28.0892 31.2535C28.2652 31.2535 28.4393 31.2163 28.6 31.1443C28.7607 31.0724 28.9044 30.9673 29.0217 30.8359L34.975 24.1693ZM22.375 34.5859C22.0435 34.5859 21.7255 34.7176 21.4911 34.9521C21.2567 35.1865 21.125 35.5044 21.125 35.8359C21.125 36.1675 21.2567 36.4854 21.4911 36.7198C21.7255 36.9542 22.0435 37.0859 22.375 37.0859H37.375C37.7065 37.0859 38.0245 36.9542 38.2589 36.7198C38.4933 36.4854 38.625 36.1675 38.625 35.8359C38.625 35.5044 38.4933 35.1865 38.2589 34.9521C38.0245 34.7176 37.7065 34.5859 37.375 34.5859H22.375Z" fill="#12B6B3"/>
<path d="M34.975 24.1666C35.0844 24.044 35.1687 23.9011 35.2229 23.746C35.2771 23.5909 35.3002 23.4266 35.2909 23.2625C35.2816 23.0985 35.2401 22.9379 35.1687 22.7899C35.0974 22.6419 34.9976 22.5094 34.875 22.3999C34.7524 22.2905 34.6095 22.2063 34.4544 22.1521C34.2993 22.0979 34.135 22.0747 33.971 22.084C33.8069 22.0933 33.6463 22.1348 33.4983 22.2062C33.3503 22.2775 33.2178 22.3774 33.1083 22.4999L28.09 28.1233L26.64 26.4999C26.4184 26.255 26.1089 26.1078 25.7791 26.0904C25.4493 26.073 25.126 26.1868 24.8798 26.407C24.6337 26.6272 24.4846 26.9358 24.4653 27.2655C24.446 27.5952 24.5579 27.9192 24.7767 28.1666L27.1567 30.8333C27.2739 30.9646 27.4176 31.0697 27.5783 31.1417C27.739 31.2136 27.9131 31.2508 28.0892 31.2508C28.2652 31.2508 28.4393 31.2136 28.6 31.1417C28.7607 31.0697 28.9044 30.9646 29.0217 30.8333L34.975 24.1666ZM22.375 34.5833C22.0435 34.5833 21.7255 34.7149 21.4911 34.9494C21.2567 35.1838 21.125 35.5017 21.125 35.8333C21.125 36.1648 21.2567 36.4827 21.4911 36.7171C21.7255 36.9516 22.0435 37.0833 22.375 37.0833H37.375C37.7065 37.0833 38.0245 36.9516 38.2589 36.7171C38.4933 36.4827 38.625 36.1648 38.625 35.8333C38.625 35.5017 38.4933 35.1838 38.2589 34.9494C38.0245 34.7149 37.7065 34.5833 37.375 34.5833H22.375Z" fill="white"/>
</svg>
