<svg width="60" height="60" viewBox="0 0 60 60" fill="none" xmlns="http://www.w3.org/2000/svg">
<rect width="60" height="60" rx="30" fill="#FAFAFA"/>
<rect x="0.623807" y="0.623807" width="58.7524" height="58.7524" rx="29.3762" stroke="#755BE2" stroke-opacity="0.07" stroke-width="1.24761"/>
<path fill-rule="evenodd" clip-rule="evenodd" d="M33.207 46.6693H26.5404C20.2554 46.6693 17.112 46.6693 15.1604 44.7159C13.2087 42.7626 13.207 39.6209 13.207 33.3359V26.6693C13.207 20.3843 13.207 17.2409 15.1604 15.2893C17.1137 13.3376 20.272 13.3359 26.5904 13.3359C27.6004 13.3359 28.4087 13.3359 29.0904 13.3643C29.0681 13.4976 29.057 13.6332 29.057 13.7709L29.0404 18.4943C29.0404 20.3226 29.0404 21.9393 29.2154 23.2409C29.4054 24.6526 29.8404 26.0643 30.9937 27.2176C32.1437 28.3676 33.557 28.8043 34.9687 28.9943C36.2704 29.1693 37.887 29.1693 39.7154 29.1693H46.4687C46.5404 30.0593 46.5404 31.1526 46.5404 32.6076V33.3359C46.5404 39.6209 46.5404 42.7643 44.587 44.7159C42.6337 46.6676 39.492 46.6693 33.207 46.6693ZM18.6237 34.1693C18.6237 33.8377 18.7554 33.5198 18.9898 33.2854C19.2242 33.051 19.5422 32.9193 19.8737 32.9193H33.207C33.5386 32.9193 33.8565 33.051 34.0909 33.2854C34.3253 33.5198 34.457 33.8377 34.457 34.1693C34.457 34.5008 34.3253 34.8187 34.0909 35.0532C33.8565 35.2876 33.5386 35.4193 33.207 35.4193H19.8737C19.5422 35.4193 19.2242 35.2876 18.9898 35.0532C18.7554 34.8187 18.6237 34.5008 18.6237 34.1693ZM18.6237 40.0026C18.6237 39.6711 18.7554 39.3531 18.9898 39.1187C19.2242 38.8843 19.5422 38.7526 19.8737 38.7526H29.0404C29.3719 38.7526 29.6898 38.8843 29.9242 39.1187C30.1587 39.3531 30.2904 39.6711 30.2904 40.0026C30.2904 40.3341 30.1587 40.6521 29.9242 40.8865C29.6898 41.1209 29.3719 41.2526 29.0404 41.2526H19.8737C19.5422 41.2526 19.2242 41.1209 18.9898 40.8865C18.7554 40.6521 18.6237 40.3341 18.6237 40.0026Z" fill="#181818"/>
<path d="M42.1296 22.6918L35.5296 16.7534C33.6513 15.0618 32.713 14.2151 31.558 13.7734L31.543 18.3301C31.543 22.2584 31.543 24.2234 32.763 25.4434C33.983 26.6634 35.948 26.6634 39.8763 26.6634H45.843C45.2396 25.4901 44.1563 24.5168 42.1296 22.6918Z" fill="#181818"/>
</svg>
