<svg width="60" height="60" viewBox="0 0 60 60" fill="none" xmlns="http://www.w3.org/2000/svg">
<rect width="60" height="60" rx="30" fill="#FAFAFA"/>
<rect x="0.623807" y="0.623807" width="58.7524" height="58.7524" rx="29.3762" stroke="#755BE2" stroke-opacity="0.07" stroke-width="1.24761"/>
<path d="M30.4076 13.3359L30.6026 13.3476C30.9746 13.3915 31.321 13.5594 31.5859 13.8243C31.8508 14.0892 32.0187 14.4356 32.0626 14.8076L32.0742 15.0026V21.6693L32.0826 21.9193C32.1422 22.7129 32.4838 23.459 33.0457 24.0227C33.6075 24.5863 34.3525 24.9304 35.1459 24.9926L35.4076 25.0026H42.0742L42.2692 25.0143C42.6412 25.0581 42.9876 25.2261 43.2525 25.491C43.5174 25.7558 43.6853 26.1022 43.7292 26.4743L43.7409 26.6693V41.6693C43.741 42.9446 43.2537 44.1718 42.3787 45.0997C41.5038 46.0276 40.3074 46.5861 39.0342 46.6609L38.7409 46.6693H22.0742C20.7989 46.6693 19.5717 46.1821 18.6438 45.3071C17.7159 44.4322 17.1574 43.2358 17.0826 41.9626L17.0742 41.6693V18.3359C17.0741 17.0606 17.5614 15.8334 18.4364 14.9055C19.3113 13.9776 20.5077 13.4191 21.7809 13.3443L22.0742 13.3359H30.4076ZM37.0742 38.3359H33.7409C33.2989 38.3359 32.8749 38.5115 32.5624 38.8241C32.2498 39.1367 32.0742 39.5606 32.0742 40.0026C32.0742 40.4446 32.2498 40.8686 32.5624 41.1811C32.8749 41.4937 33.2989 41.6693 33.7409 41.6693H37.0742C37.5162 41.6693 37.9402 41.4937 38.2527 41.1811C38.5653 40.8686 38.7409 40.4446 38.7409 40.0026C38.7409 39.5606 38.5653 39.1367 38.2527 38.8241C37.9402 38.5115 37.5162 38.3359 37.0742 38.3359ZM37.0742 31.6693H23.7409C23.2989 31.6693 22.8749 31.8449 22.5624 32.1574C22.2498 32.47 22.0742 32.8939 22.0742 33.3359C22.0742 33.778 22.2498 34.2019 22.5624 34.5144C22.8749 34.827 23.2989 35.0026 23.7409 35.0026H37.0742C37.5162 35.0026 37.9402 34.827 38.2527 34.5144C38.5653 34.2019 38.7409 33.778 38.7409 33.3359C38.7409 32.8939 38.5653 32.47 38.2527 32.1574C37.9402 31.8449 37.5162 31.6693 37.0742 31.6693ZM25.4076 20.0026H23.7409C23.2989 20.0026 22.8749 20.1782 22.5624 20.4908C22.2498 20.8033 22.0742 21.2272 22.0742 21.6693C22.0742 22.1113 22.2498 22.5352 22.5624 22.8478C22.8749 23.1603 23.2989 23.3359 23.7409 23.3359H25.4076C25.8496 23.3359 26.2735 23.1603 26.5861 22.8478C26.8986 22.5352 27.0742 22.1113 27.0742 21.6693C27.0742 21.2272 26.8986 20.8033 26.5861 20.4908C26.2735 20.1782 25.8496 20.0026 25.4076 20.0026Z" fill="#BD47DA"/>
<path d="M42.0746 21.6683H35.4079L35.4062 15L42.0746 21.6683Z" fill="#BD47DA"/>
</svg>
